<svg width="177" height="51" viewBox="0 0 177 51" fill="none" xmlns="http://www.w3.org/2000/svg">
<path d="M9.48 33.21C7.94 33.21 6.56 32.96 5.34 32.46C4.12 31.96 3.14 31.22 2.4 30.24C1.68 29.26 1.3 28.08 1.26 26.7H6.72C6.8 27.48 7.07 28.08 7.53 28.5C7.99 28.9 8.59 29.1 9.33 29.1C10.09 29.1 10.69 28.93 11.13 28.59C11.57 28.23 11.79 27.74 11.79 27.12C11.79 26.6 11.61 26.17 11.25 25.83C10.91 25.49 10.48 25.21 9.96 24.99C9.46 24.77 8.74 24.52 7.8 24.24C6.44 23.82 5.33 23.4 4.47 22.98C3.61 22.56 2.87 21.94 2.25 21.12C1.63 20.3 1.32 19.23 1.32 17.91C1.32 15.95 2.03 14.42 3.45 13.32C4.87 12.2 6.72 11.64 9 11.64C11.32 11.64 13.19 12.2 14.61 13.32C16.03 14.42 16.79 15.96 16.89 17.94H11.34C11.3 17.26 11.05 16.73 10.59 16.35C10.13 15.95 9.54 15.75 8.82 15.75C8.2 15.75 7.7 15.92 7.32 16.26C6.94 16.58 6.75 17.05 6.75 17.67C6.75 18.35 7.07 18.88 7.71 19.26C8.35 19.64 9.35 20.05 10.71 20.49C12.07 20.95 13.17 21.39 14.01 21.81C14.87 22.23 15.61 22.84 16.23 23.64C16.85 24.44 17.16 25.47 17.16 26.73C17.16 27.93 16.85 29.02 16.23 30C15.63 30.98 14.75 31.76 13.59 32.34C12.43 32.92 11.06 33.21 9.48 33.21ZM19.447 22.44C19.447 20.36 19.897 18.51 20.797 16.89C21.697 15.25 22.947 13.98 24.547 13.08C26.167 12.16 27.997 11.7 30.037 11.7C32.537 11.7 34.677 12.36 36.457 13.68C38.237 15 39.427 16.8 40.027 19.08H34.387C33.967 18.2 33.367 17.53 32.587 17.07C31.827 16.61 30.957 16.38 29.977 16.38C28.397 16.38 27.117 16.93 26.137 18.03C25.157 19.13 24.667 20.6 24.667 22.44C24.667 24.28 25.157 25.75 26.137 26.85C27.117 27.95 28.397 28.5 29.977 28.5C30.957 28.5 31.827 28.27 32.587 27.81C33.367 27.35 33.967 26.68 34.387 25.8H40.027C39.427 28.08 38.237 29.88 36.457 31.2C34.677 32.5 32.537 33.15 30.037 33.15C27.997 33.15 26.167 32.7 24.547 31.8C22.947 30.88 21.697 29.61 20.797 27.99C19.897 26.37 19.447 24.52 19.447 22.44ZM53.9086 33L49.5286 25.05H48.2986V33H43.1686V11.94H51.7786C53.4386 11.94 54.8486 12.23 56.0086 12.81C57.1886 13.39 58.0686 14.19 58.6486 15.21C59.2286 16.21 59.5186 17.33 59.5186 18.57C59.5186 19.97 59.1186 21.22 58.3186 22.32C57.5386 23.42 56.3786 24.2 54.8386 24.66L59.6986 33H53.9086ZM48.2986 21.42H51.4786C52.4186 21.42 53.1186 21.19 53.5786 20.73C54.0586 20.27 54.2986 19.62 54.2986 18.78C54.2986 17.98 54.0586 17.35 53.5786 16.89C53.1186 16.43 52.4186 16.2 51.4786 16.2H48.2986V21.42ZM67.7789 11.94V24.54C67.7789 25.8 68.0889 26.77 68.7089 27.45C69.3289 28.13 70.2389 28.47 71.4389 28.47C72.6389 28.47 73.5589 28.13 74.1989 27.45C74.8389 26.77 75.1589 25.8 75.1589 24.54V11.94H80.2889V24.51C80.2889 26.39 79.8889 27.98 79.0889 29.28C78.2889 30.58 77.2089 31.56 75.8489 32.22C74.5089 32.88 73.0089 33.21 71.3489 33.21C69.6889 33.21 68.1989 32.89 66.8789 32.25C65.5789 31.59 64.5489 30.61 63.7889 29.31C63.0289 27.99 62.6489 26.39 62.6489 24.51V11.94H67.7789ZM96.6413 22.2C97.8613 22.46 98.8413 23.07 99.5813 24.03C100.321 24.97 100.691 26.05 100.691 27.27C100.691 29.03 100.071 30.43 98.8313 31.47C97.6113 32.49 95.9013 33 93.7013 33H83.8913V11.94H93.3713C95.5113 11.94 97.1813 12.43 98.3813 13.41C99.6013 14.39 100.211 15.72 100.211 17.4C100.211 18.64 99.8813 19.67 99.2213 20.49C98.5813 21.31 97.7213 21.88 96.6413 22.2ZM89.0213 20.46H92.3813C93.2213 20.46 93.8613 20.28 94.3013 19.92C94.7613 19.54 94.9913 18.99 94.9913 18.27C94.9913 17.55 94.7613 17 94.3013 16.62C93.8613 16.24 93.2213 16.05 92.3813 16.05H89.0213V20.46ZM92.8013 28.86C93.6613 28.86 94.3213 28.67 94.7813 28.29C95.2613 27.89 95.5013 27.32 95.5013 26.58C95.5013 25.84 95.2513 25.26 94.7513 24.84C94.2713 24.42 93.6013 24.21 92.7413 24.21H89.0213V28.86H92.8013ZM111.287 33.21C109.747 33.21 108.367 32.96 107.147 32.46C105.927 31.96 104.947 31.22 104.207 30.24C103.487 29.26 103.107 28.08 103.067 26.7H108.527C108.607 27.48 108.877 28.08 109.337 28.5C109.797 28.9 110.397 29.1 111.137 29.1C111.897 29.1 112.497 28.93 112.937 28.59C113.377 28.23 113.597 27.74 113.597 27.12C113.597 26.6 113.417 26.17 113.057 25.83C112.717 25.49 112.287 25.21 111.767 24.99C111.267 24.77 110.547 24.52 109.607 24.24C108.247 23.82 107.137 23.4 106.277 22.98C105.417 22.56 104.677 21.94 104.057 21.12C103.437 20.3 103.127 19.23 103.127 17.91C103.127 15.95 103.837 14.42 105.257 13.32C106.677 12.2 108.527 11.64 110.807 11.64C113.127 11.64 114.997 12.2 116.417 13.32C117.837 14.42 118.597 15.96 118.697 17.94H113.147C113.107 17.26 112.857 16.73 112.397 16.35C111.937 15.95 111.347 15.75 110.627 15.75C110.007 15.75 109.507 15.92 109.127 16.26C108.747 16.58 108.557 17.05 108.557 17.67C108.557 18.35 108.877 18.88 109.517 19.26C110.157 19.64 111.157 20.05 112.517 20.49C113.877 20.95 114.977 21.39 115.817 21.81C116.677 22.23 117.417 22.84 118.037 23.64C118.657 24.44 118.967 25.47 118.967 26.73C118.967 27.93 118.657 29.02 118.037 30C117.437 30.98 116.557 31.76 115.397 32.34C114.237 32.92 112.867 33.21 111.287 33.21Z" fill="white"/>
<path d="M132.084 33.21C130.104 33.21 128.284 32.75 126.624 31.83C124.984 30.91 123.674 29.63 122.694 27.99C121.734 26.33 121.254 24.47 121.254 22.41C121.254 20.35 121.734 18.5 122.694 16.86C123.674 15.22 124.984 13.94 126.624 13.02C128.284 12.1 130.104 11.64 132.084 11.64C134.064 11.64 135.874 12.1 137.514 13.02C139.174 13.94 140.474 15.22 141.414 16.86C142.374 18.5 142.854 20.35 142.854 22.41C142.854 24.47 142.374 26.33 141.414 27.99C140.454 29.63 139.154 30.91 137.514 31.83C135.874 32.75 134.064 33.21 132.084 33.21ZM132.084 28.53C133.764 28.53 135.104 27.97 136.104 26.85C137.124 25.73 137.634 24.25 137.634 22.41C137.634 20.55 137.124 19.07 136.104 17.97C135.104 16.85 133.764 16.29 132.084 16.29C130.384 16.29 129.024 16.84 128.004 17.94C127.004 19.04 126.504 20.53 126.504 22.41C126.504 24.27 127.004 25.76 128.004 26.88C129.024 27.98 130.384 28.53 132.084 28.53ZM159.418 11.94V16.05H150.838V20.49H157.258V24.48H150.838V33H145.708V11.94H159.418ZM175.824 11.94V16.05H167.244V20.49H173.664V24.48H167.244V33H162.114V11.94H175.824Z" fill="#FFBB3F"/>
<path d="M61.53 41.4C61.9633 41.4 62.35 41.49 62.69 41.67C63.0367 41.85 63.3067 42.1167 63.5 42.47C63.6933 42.8233 63.79 43.25 63.79 43.75V47H62.66V43.92C62.66 43.4267 62.5367 43.05 62.29 42.79C62.0433 42.5233 61.7067 42.39 61.28 42.39C60.8533 42.39 60.5133 42.5233 60.26 42.79C60.0133 43.05 59.89 43.4267 59.89 43.92V47H58.75V41.49H59.89V42.12C60.0767 41.8933 60.3133 41.7167 60.6 41.59C60.8933 41.4633 61.2033 41.4 61.53 41.4ZM67.6341 47.09C67.1141 47.09 66.6441 46.9733 66.2241 46.74C65.8041 46.5 65.4741 46.1667 65.2341 45.74C64.9941 45.3067 64.8741 44.8067 64.8741 44.24C64.8741 43.68 64.9975 43.1833 65.2441 42.75C65.4908 42.3167 65.8275 41.9833 66.2541 41.75C66.6808 41.5167 67.1575 41.4 67.6841 41.4C68.2108 41.4 68.6875 41.5167 69.1141 41.75C69.5408 41.9833 69.8775 42.3167 70.1241 42.75C70.3708 43.1833 70.4941 43.68 70.4941 44.24C70.4941 44.8 70.3675 45.2967 70.1141 45.73C69.8608 46.1633 69.5141 46.5 69.0741 46.74C68.6408 46.9733 68.1608 47.09 67.6341 47.09ZM67.6341 46.1C67.9275 46.1 68.2008 46.03 68.4541 45.89C68.7141 45.75 68.9241 45.54 69.0841 45.26C69.2441 44.98 69.3241 44.64 69.3241 44.24C69.3241 43.84 69.2475 43.5033 69.0941 43.23C68.9408 42.95 68.7375 42.74 68.4841 42.6C68.2308 42.46 67.9575 42.39 67.6641 42.39C67.3708 42.39 67.0975 42.46 66.8441 42.6C66.5975 42.74 66.4008 42.95 66.2541 43.23C66.1075 43.5033 66.0341 43.84 66.0341 44.24C66.0341 44.8333 66.1841 45.2933 66.4841 45.62C66.7908 45.94 67.1741 46.1 67.6341 46.1ZM74.4011 41.4C74.8344 41.4 75.2211 41.49 75.5611 41.67C75.9078 41.85 76.1778 42.1167 76.3711 42.47C76.5644 42.8233 76.6611 43.25 76.6611 43.75V47H75.5311V43.92C75.5311 43.4267 75.4078 43.05 75.1611 42.79C74.9144 42.5233 74.5778 42.39 74.1511 42.39C73.7244 42.39 73.3844 42.5233 73.1311 42.79C72.8844 43.05 72.7611 43.4267 72.7611 43.92V47H71.6211V41.49H72.7611V42.12C72.9478 41.8933 73.1844 41.7167 73.4711 41.59C73.7644 41.4633 74.0744 41.4 74.4011 41.4ZM82.3452 42.9V43.86H78.2352V42.9H82.3452ZM85.1048 42.3C85.2982 42.0467 85.5615 41.8333 85.8948 41.66C86.2282 41.4867 86.6048 41.4 87.0248 41.4C87.5048 41.4 87.9415 41.52 88.3348 41.76C88.7348 41.9933 89.0482 42.3233 89.2748 42.75C89.5015 43.1767 89.6148 43.6667 89.6148 44.22C89.6148 44.7733 89.5015 45.27 89.2748 45.71C89.0482 46.1433 88.7348 46.4833 88.3348 46.73C87.9415 46.97 87.5048 47.09 87.0248 47.09C86.6048 47.09 86.2315 47.0067 85.9048 46.84C85.5782 46.6667 85.3115 46.4533 85.1048 46.2V49.62H83.9648V41.49H85.1048V42.3ZM88.4548 44.22C88.4548 43.84 88.3748 43.5133 88.2148 43.24C88.0615 42.96 87.8548 42.75 87.5948 42.61C87.3415 42.4633 87.0682 42.39 86.7748 42.39C86.4882 42.39 86.2148 42.4633 85.9548 42.61C85.7015 42.7567 85.4948 42.97 85.3348 43.25C85.1815 43.53 85.1048 43.86 85.1048 44.24C85.1048 44.62 85.1815 44.9533 85.3348 45.24C85.4948 45.52 85.7015 45.7333 85.9548 45.88C86.2148 46.0267 86.4882 46.1 86.7748 46.1C87.0682 46.1 87.3415 46.0267 87.5948 45.88C87.8548 45.7267 88.0615 45.5067 88.2148 45.22C88.3748 44.9333 88.4548 44.6 88.4548 44.22ZM91.8822 42.29C92.0489 42.01 92.2689 41.7933 92.5422 41.64C92.8222 41.48 93.1522 41.4 93.5322 41.4V42.58H93.2422C92.7955 42.58 92.4555 42.6933 92.2222 42.92C91.9955 43.1467 91.8822 43.54 91.8822 44.1V47H90.7422V41.49H91.8822V42.29ZM96.9701 47.09C96.4501 47.09 95.9801 46.9733 95.5601 46.74C95.1401 46.5 94.8101 46.1667 94.5701 45.74C94.3301 45.3067 94.2101 44.8067 94.2101 44.24C94.2101 43.68 94.3334 43.1833 94.5801 42.75C94.8267 42.3167 95.1634 41.9833 95.5901 41.75C96.0167 41.5167 96.4934 41.4 97.0201 41.4C97.5467 41.4 98.0234 41.5167 98.4501 41.75C98.8767 41.9833 99.2134 42.3167 99.4601 42.75C99.7067 43.1833 99.8301 43.68 99.8301 44.24C99.8301 44.8 99.7034 45.2967 99.4501 45.73C99.1967 46.1633 98.8501 46.5 98.4101 46.74C97.9767 46.9733 97.4967 47.09 96.9701 47.09ZM96.9701 46.1C97.2634 46.1 97.5367 46.03 97.7901 45.89C98.0501 45.75 98.2601 45.54 98.4201 45.26C98.5801 44.98 98.6601 44.64 98.6601 44.24C98.6601 43.84 98.5834 43.5033 98.4301 43.23C98.2767 42.95 98.0734 42.74 97.8201 42.6C97.5667 42.46 97.2934 42.39 97.0001 42.39C96.7067 42.39 96.4334 42.46 96.1801 42.6C95.9334 42.74 95.7367 42.95 95.5901 43.23C95.4434 43.5033 95.3701 43.84 95.3701 44.24C95.3701 44.8333 95.5201 45.2933 95.8201 45.62C96.1267 45.94 96.5101 46.1 96.9701 46.1ZM103.267 42.42H102.247V47H101.097V42.42H100.447V41.49H101.097V41.1C101.097 40.4667 101.264 40.0067 101.597 39.72C101.937 39.4267 102.467 39.28 103.187 39.28V40.23C102.84 40.23 102.597 40.2967 102.457 40.43C102.317 40.5567 102.247 40.78 102.247 41.1V41.49H103.267V42.42ZM104.857 40.76C104.651 40.76 104.477 40.69 104.337 40.55C104.197 40.41 104.127 40.2367 104.127 40.03C104.127 39.8233 104.197 39.65 104.337 39.51C104.477 39.37 104.651 39.3 104.857 39.3C105.057 39.3 105.227 39.37 105.367 39.51C105.507 39.65 105.577 39.8233 105.577 40.03C105.577 40.2367 105.507 40.41 105.367 40.55C105.227 40.69 105.057 40.76 104.857 40.76ZM105.417 41.49V47H104.277V41.49H105.417ZM108.244 42.42V45.47C108.244 45.6767 108.291 45.8267 108.384 45.92C108.484 46.0067 108.651 46.05 108.884 46.05H109.584V47H108.684C108.171 47 107.777 46.88 107.504 46.64C107.231 46.4 107.094 46.01 107.094 45.47V42.42H106.444V41.49H107.094V40.12H108.244V41.49H109.584V42.42H108.244ZM115.622 47.09C115.102 47.09 114.632 46.9733 114.212 46.74C113.792 46.5 113.462 46.1667 113.222 45.74C112.982 45.3067 112.862 44.8067 112.862 44.24C112.862 43.68 112.986 43.1833 113.232 42.75C113.479 42.3167 113.816 41.9833 114.242 41.75C114.669 41.5167 115.146 41.4 115.672 41.4C116.199 41.4 116.676 41.5167 117.102 41.75C117.529 41.9833 117.866 42.3167 118.112 42.75C118.359 43.1833 118.482 43.68 118.482 44.24C118.482 44.8 118.356 45.2967 118.102 45.73C117.849 46.1633 117.502 46.5 117.062 46.74C116.629 46.9733 116.149 47.09 115.622 47.09ZM115.622 46.1C115.916 46.1 116.189 46.03 116.442 45.89C116.702 45.75 116.912 45.54 117.072 45.26C117.232 44.98 117.312 44.64 117.312 44.24C117.312 43.84 117.236 43.5033 117.082 43.23C116.929 42.95 116.726 42.74 116.472 42.6C116.219 42.46 115.946 42.39 115.652 42.39C115.359 42.39 115.086 42.46 114.832 42.6C114.586 42.74 114.389 42.95 114.242 43.23C114.096 43.5033 114.022 43.84 114.022 44.24C114.022 44.8333 114.172 45.2933 114.472 45.62C114.779 45.94 115.162 46.1 115.622 46.1ZM120.749 42.29C120.916 42.01 121.136 41.7933 121.409 41.64C121.689 41.48 122.019 41.4 122.399 41.4V42.58H122.109C121.663 42.58 121.323 42.6933 121.089 42.92C120.863 43.1467 120.749 43.54 120.749 44.1V47H119.609V41.49H120.749V42.29ZM125.667 41.4C126.094 41.4 126.471 41.4867 126.797 41.66C127.131 41.8267 127.391 42.0367 127.577 42.29V41.49H128.727V47.09C128.727 47.5967 128.621 48.0467 128.407 48.44C128.194 48.84 127.884 49.1533 127.477 49.38C127.077 49.6067 126.597 49.72 126.037 49.72C125.291 49.72 124.671 49.5433 124.177 49.19C123.684 48.8433 123.404 48.37 123.337 47.77H124.467C124.554 48.0567 124.737 48.2867 125.017 48.46C125.304 48.64 125.644 48.73 126.037 48.73C126.497 48.73 126.867 48.59 127.147 48.31C127.434 48.03 127.577 47.6233 127.577 47.09V46.17C127.384 46.43 127.121 46.65 126.787 46.83C126.461 47.0033 126.087 47.09 125.667 47.09C125.187 47.09 124.747 46.97 124.347 46.73C123.954 46.4833 123.641 46.1433 123.407 45.71C123.181 45.27 123.067 44.7733 123.067 44.22C123.067 43.6667 123.181 43.1767 123.407 42.75C123.641 42.3233 123.954 41.9933 124.347 41.76C124.747 41.52 125.187 41.4 125.667 41.4ZM127.577 44.24C127.577 43.86 127.497 43.53 127.337 43.25C127.184 42.97 126.981 42.7567 126.727 42.61C126.474 42.4633 126.201 42.39 125.907 42.39C125.614 42.39 125.341 42.4633 125.087 42.61C124.834 42.75 124.627 42.96 124.467 43.24C124.314 43.5133 124.237 43.84 124.237 44.22C124.237 44.6 124.314 44.9333 124.467 45.22C124.627 45.5067 124.834 45.7267 125.087 45.88C125.347 46.0267 125.621 46.1 125.907 46.1C126.201 46.1 126.474 46.0267 126.727 45.88C126.981 45.7333 127.184 45.52 127.337 45.24C127.497 44.9533 127.577 44.62 127.577 44.24ZM129.845 44.22C129.845 43.6667 129.958 43.1767 130.185 42.75C130.418 42.3233 130.731 41.9933 131.125 41.76C131.525 41.52 131.965 41.4 132.445 41.4C132.878 41.4 133.255 41.4867 133.575 41.66C133.901 41.8267 134.161 42.0367 134.355 42.29V41.49H135.505V47H134.355V46.18C134.161 46.44 133.898 46.6567 133.565 46.83C133.231 47.0033 132.851 47.09 132.425 47.09C131.951 47.09 131.518 46.97 131.125 46.73C130.731 46.4833 130.418 46.1433 130.185 45.71C129.958 45.27 129.845 44.7733 129.845 44.22ZM134.355 44.24C134.355 43.86 134.275 43.53 134.115 43.25C133.961 42.97 133.758 42.7567 133.505 42.61C133.251 42.4633 132.978 42.39 132.685 42.39C132.391 42.39 132.118 42.4633 131.865 42.61C131.611 42.75 131.405 42.96 131.245 43.24C131.091 43.5133 131.015 43.84 131.015 44.22C131.015 44.6 131.091 44.9333 131.245 45.22C131.405 45.5067 131.611 45.7267 131.865 45.88C132.125 46.0267 132.398 46.1 132.685 46.1C132.978 46.1 133.251 46.0267 133.505 45.88C133.758 45.7333 133.961 45.52 134.115 45.24C134.275 44.9533 134.355 44.62 134.355 44.24ZM139.782 41.4C140.215 41.4 140.602 41.49 140.942 41.67C141.289 41.85 141.559 42.1167 141.752 42.47C141.945 42.8233 142.042 43.25 142.042 43.75V47H140.912V43.92C140.912 43.4267 140.789 43.05 140.542 42.79C140.295 42.5233 139.959 42.39 139.532 42.39C139.105 42.39 138.765 42.5233 138.512 42.79C138.265 43.05 138.142 43.4267 138.142 43.92V47H137.002V41.49H138.142V42.12C138.329 41.8933 138.565 41.7167 138.852 41.59C139.145 41.4633 139.455 41.4 139.782 41.4ZM144.076 40.76C143.869 40.76 143.696 40.69 143.556 40.55C143.416 40.41 143.346 40.2367 143.346 40.03C143.346 39.8233 143.416 39.65 143.556 39.51C143.696 39.37 143.869 39.3 144.076 39.3C144.276 39.3 144.446 39.37 144.586 39.51C144.726 39.65 144.796 39.8233 144.796 40.03C144.796 40.2367 144.726 40.41 144.586 40.55C144.446 40.69 144.276 40.76 144.076 40.76ZM144.636 41.49V47H143.496V41.49H144.636ZM147.143 46.07H149.643V47H145.823V46.07L148.333 42.42H145.823V41.49H149.643V42.42L147.143 46.07ZM150.46 44.22C150.46 43.6667 150.573 43.1767 150.8 42.75C151.033 42.3233 151.347 41.9933 151.74 41.76C152.14 41.52 152.58 41.4 153.06 41.4C153.493 41.4 153.87 41.4867 154.19 41.66C154.517 41.8267 154.777 42.0367 154.97 42.29V41.49H156.12V47H154.97V46.18C154.777 46.44 154.513 46.6567 154.18 46.83C153.847 47.0033 153.467 47.09 153.04 47.09C152.567 47.09 152.133 46.97 151.74 46.73C151.347 46.4833 151.033 46.1433 150.8 45.71C150.573 45.27 150.46 44.7733 150.46 44.22ZM154.97 44.24C154.97 43.86 154.89 43.53 154.73 43.25C154.577 42.97 154.373 42.7567 154.12 42.61C153.867 42.4633 153.593 42.39 153.3 42.39C153.007 42.39 152.733 42.4633 152.48 42.61C152.227 42.75 152.02 42.96 151.86 43.24C151.707 43.5133 151.63 43.84 151.63 44.22C151.63 44.6 151.707 44.9333 151.86 45.22C152.02 45.5067 152.227 45.7267 152.48 45.88C152.74 46.0267 153.013 46.1 153.3 46.1C153.593 46.1 153.867 46.0267 154.12 45.88C154.373 45.7333 154.577 45.52 154.73 45.24C154.89 44.9533 154.97 44.62 154.97 44.24ZM158.947 42.42V45.47C158.947 45.6767 158.994 45.8267 159.087 45.92C159.187 46.0067 159.354 46.05 159.587 46.05H160.287V47H159.387C158.874 47 158.481 46.88 158.207 46.64C157.934 46.4 157.797 46.01 157.797 45.47V42.42H157.147V41.49H157.797V40.12H158.947V41.49H160.287V42.42H158.947ZM161.918 40.76C161.711 40.76 161.538 40.69 161.398 40.55C161.258 40.41 161.188 40.2367 161.188 40.03C161.188 39.8233 161.258 39.65 161.398 39.51C161.538 39.37 161.711 39.3 161.918 39.3C162.118 39.3 162.288 39.37 162.428 39.51C162.568 39.65 162.638 39.8233 162.638 40.03C162.638 40.2367 162.568 40.41 162.428 40.55C162.288 40.69 162.118 40.76 161.918 40.76ZM162.478 41.49V47H161.338V41.49H162.478ZM166.365 47.09C165.845 47.09 165.375 46.9733 164.955 46.74C164.535 46.5 164.205 46.1667 163.965 45.74C163.725 45.3067 163.605 44.8067 163.605 44.24C163.605 43.68 163.728 43.1833 163.975 42.75C164.221 42.3167 164.558 41.9833 164.985 41.75C165.411 41.5167 165.888 41.4 166.415 41.4C166.941 41.4 167.418 41.5167 167.845 41.75C168.271 41.9833 168.608 42.3167 168.855 42.75C169.101 43.1833 169.225 43.68 169.225 44.24C169.225 44.8 169.098 45.2967 168.845 45.73C168.591 46.1633 168.245 46.5 167.805 46.74C167.371 46.9733 166.891 47.09 166.365 47.09ZM166.365 46.1C166.658 46.1 166.931 46.03 167.185 45.89C167.445 45.75 167.655 45.54 167.815 45.26C167.975 44.98 168.055 44.64 168.055 44.24C168.055 43.84 167.978 43.5033 167.825 43.23C167.671 42.95 167.468 42.74 167.215 42.6C166.961 42.46 166.688 42.39 166.395 42.39C166.101 42.39 165.828 42.46 165.575 42.6C165.328 42.74 165.131 42.95 164.985 43.23C164.838 43.5033 164.765 43.84 164.765 44.24C164.765 44.8333 164.915 45.2933 165.215 45.62C165.521 45.94 165.905 46.1 166.365 46.1ZM173.132 41.4C173.565 41.4 173.952 41.49 174.292 41.67C174.638 41.85 174.908 42.1167 175.102 42.47C175.295 42.8233 175.392 43.25 175.392 43.75V47H174.262V43.92C174.262 43.4267 174.138 43.05 173.892 42.79C173.645 42.5233 173.308 42.39 172.882 42.39C172.455 42.39 172.115 42.5233 171.862 42.79C171.615 43.05 171.492 43.4267 171.492 43.92V47H170.352V41.49H171.492V42.12C171.678 41.8933 171.915 41.7167 172.202 41.59C172.495 41.4633 172.805 41.4 173.132 41.4Z" fill="white"/>
</svg>
