<svg width="15" height="12" viewBox="0 0 15 12" fill="none" xmlns="http://www.w3.org/2000/svg">
<path d="M4.64361 11.9999C10.2157 11.9999 13.2629 7.38357 13.2629 3.38062C13.2629 3.24951 13.2602 3.11894 13.2543 2.9891C13.8458 2.56145 14.3598 2.0278 14.7654 1.42037C14.2227 1.66173 13.6384 1.824 13.0258 1.89741C13.6512 1.52222 14.1314 0.928974 14.3578 0.221769C13.7725 0.56878 13.1243 0.820889 12.4342 0.957056C11.8814 0.368231 11.0943 0 10.2229 0C8.55003 0 7.19332 1.35662 7.19332 3.02892C7.19332 3.26676 7.21995 3.49792 7.27188 3.71969C4.75413 3.593 2.52145 2.38763 1.02749 0.554603C0.767433 1.0022 0.61736 1.52231 0.61736 2.07728C0.61736 3.12815 1.15219 4.05613 1.9654 4.59882C1.46841 4.58356 1.00157 4.44712 0.593431 4.22002C0.592979 4.23276 0.592979 4.24513 0.592979 4.25867C0.592979 5.72581 1.63717 6.95078 3.0235 7.22835C2.76886 7.29761 2.50095 7.3349 2.22464 7.3349C2.02978 7.3349 1.8398 7.31576 1.65523 7.28027C2.04089 8.48393 3.15931 9.35981 4.48522 9.38437C3.44835 10.197 2.1422 10.6811 0.722646 10.6811C0.478483 10.6811 0.23712 10.6671 0 10.6391C1.34073 11.4985 2.93266 11.9999 4.64361 11.9999Z" fill="white"/>
</svg>
